<?xml version="1.0" encoding="UTF-8"?>
<svg width="1611px" height="512px" viewBox="0 0 1611 512" version="1.1" xmlns="http://www.w3.org/2000/svg" xmlns:xlink="http://www.w3.org/1999/xlink">
    <!-- Generator: Sketch 57.1 (83088) - https://sketch.com -->
    <title>Group 2</title>
    <desc>Created with Sketch.</desc>
    <g id="Page-1" stroke="none" stroke-width="1" fill="none" fill-rule="evenodd">
        <g id="UI-Logo" transform="translate(-92.000000, -109.000000)">
            <g id="Group-2" transform="translate(92.000000, 109.000000)">
                <g id="ecology" fill-rule="nonzero">
                    <path d="M385.411,63.036 C381.809,60.035 377.007,59.134 372.503,60.333 L357.494,63.937 C300.761,78.044 241.026,54.931 208.606,6.302 C205.606,2.099 200.802,0 196,0 C191.198,0 186.394,2.099 183.394,6.303 C150.974,54.931 91.24,78.045 34.506,63.938 L19.497,60.334 C14.993,59.134 10.192,60.036 6.589,63.037 C2.987,65.74 0.886,70.241 0.886,74.744 L0.886,274.96 C0.886,360.81 48.615,439.957 125.46,478.38 L189.397,510.499 C191.496,511.399 193.598,512 196,512 C198.402,512 200.504,511.399 202.603,510.499 L266.54,478.38 C343.385,439.956 391.114,360.81 391.114,274.96 L391.114,74.744 C391.114,70.24 389.013,65.739 385.411,63.036 Z" id="Path" fill="#EDE9E8"></path>
                    <path d="M391.114,74.744 L391.114,274.96 C391.114,360.81 343.385,439.957 266.54,478.38 L202.603,510.499 C200.504,511.399 198.402,512 196,512 L196,0 C200.802,0 205.606,2.099 208.606,6.303 C241.026,54.931 300.76,78.045 357.494,63.938 L372.503,60.334 C377.007,59.134 381.808,60.036 385.411,63.037 C389.013,65.739 391.114,70.24 391.114,74.744 Z" id="Path" fill-opacity="0.213505245" fill="#D2C5C2"></path>
                    <path d="M138.935,451.557 C106.353,435.265 79.07,410.125 59.986,378.827 C40.96,347.628 30.904,311.711 30.904,274.96 L30.904,93.931 C43.047,96.666 55.474,98.049 67.903,98.049 C117.615,98.047 164.166,76.398 196,39.28 C227.836,76.402 274.389,98.051 324.1,98.049 C336.529,98.049 348.958,96.664 361.097,93.931 L361.097,274.96 C361.097,311.711 351.041,347.628 332.016,378.827 C312.932,410.124 285.649,435.265 253.116,451.532 L196,480.223 L138.935,451.557 Z" id="Path" fill="#62AC8D"></path>
                    <path d="M253.115,451.533 C285.648,435.266 312.93,410.126 332.015,378.828 C351.041,347.628 361.096,311.712 361.096,274.961 L361.096,93.931 C348.957,96.664 336.529,98.048 324.099,98.049 C274.388,98.05 227.836,76.401 196,39.28 L196,480.225 L253.115,451.533 Z" id="Path" fill="#2A6B4F"></path>
                    <path d="M205.004,92.753 C202.303,90.952 199,89.752 195.999,89.752 C192.997,89.752 189.694,90.952 186.994,92.753 C183.092,95.756 90.938,165.395 90.938,254.849 C90.938,344.3 183.092,413.942 186.994,416.943 C189.695,419.044 192.998,419.946 195.999,419.946 C199.001,419.946 202.304,419.044 205.004,416.943 C208.906,413.942 301.06,344.301 301.06,254.849 C301.06,165.395 208.908,95.756 205.004,92.753 Z" id="Path" fill="#2A6B4F"></path>
                    <g id="Group" transform="translate(150.000000, 89.000000)" fill="#62AC8D">
                        <path d="M151.062,165.849 C151.062,255.3 58.908,324.942 55.006,327.943 C52.305,330.044 49.002,330.946 46.001,330.946 L46.001,0.753 C49.002,0.753 52.306,1.953 55.006,3.754 C58.908,6.756 151.062,76.395 151.062,165.849 Z" id="Path"></path>
                        <path d="M61.009,135.832 L61.009,345.955 C61.009,354.359 54.406,360.964 46,360.964 C37.594,360.964 30.991,354.359 30.991,345.955 L30.991,135.832 C30.991,127.426 37.594,120.823 46,120.823 C54.406,120.823 61.009,127.426 61.009,135.832 Z" id="Path"></path>
                        <path d="M86.523,116.319 L56.505,146.337 C53.804,149.34 49.902,150.841 46,150.841 C42.098,150.841 38.195,149.34 35.495,146.337 L5.477,116.319 C-0.527,110.616 -0.527,101.01 5.477,95.307 C11.18,89.304 20.784,89.304 26.488,95.307 L46,114.518 L65.512,95.307 C71.215,89.304 80.819,89.304 86.523,95.307 C92.526,101.01 92.526,110.616 86.523,116.319 Z" id="Path"></path>
                        <path d="M86.523,206.35525 L56.505,236.37325 C53.804,239.37625 49.902,240.87725 46,240.87725 C42.098,240.87725 38.195,239.37625 35.495,236.37325 L5.477,206.35525 C-0.527,200.65225 -0.527,191.04625 5.477,185.34325 C11.18,179.34025 20.784,179.34025 26.488,185.34325 L46,204.55425 L65.512,185.34325 C71.215,179.34025 80.819,179.34025 86.523,185.34325 C92.526,191.04625 92.526,200.65225 86.523,206.35525 Z" id="Path"></path>
                    </g>
                    <g id="Group" transform="translate(196.000000, 179.000000)" fill="#2A6B4F">
                        <path d="M40.523,95.36 C46.527,101.063 46.527,110.669 40.523,116.372 L10.505,146.39 C7.804,149.393 3.902,150.894 0,150.894 L0,114.572 L19.512,95.361 C25.216,89.357 34.819,89.357 40.523,95.36 Z" id="Path"></path>
                        <path d="M10.505,56.337 C7.804,59.34 3.902,60.841 0,60.841 L0,24.519 L19.512,5.308 C25.215,-0.695 34.819,-0.695 40.523,5.308 C46.527,11.011 46.527,20.617 40.523,26.32 L10.505,56.337 Z" id="Path"></path>
                        <path d="M15.009,45.832 L15.009,255.955 C15.009,264.359 8.406,270.964 0,270.964 L0,30.823 C8.406,30.823 15.009,37.426 15.009,45.832 Z" id="Path"></path>
                    </g>
                </g>
                <text id="Ecosystem" font-family="Roboto-Bold, Roboto" font-size="250" font-weight="bold" letter-spacing="-10.4166667" fill="#2A2B39">
                    <tspan x="480.056152" y="342">Ecosystem</tspan>
                </text>
            </g>
        </g>
    </g>
</svg>