<?xml version="1.0" encoding="UTF-8"?>
<svg width="332px" height="111px" viewBox="0 0 332 111" version="1.1" xmlns="http://www.w3.org/2000/svg" xmlns:xlink="http://www.w3.org/1999/xlink">
    <!-- Generator: Sketch 57.1 (83088) - https://sketch.com -->
    <title>Group 2</title>
    <desc>Created with Sketch.</desc>
    <g id="Page-1" stroke="none" stroke-width="1" fill="none" fill-rule="evenodd">
        <g id="Artboard" transform="translate(-55.000000, -36.000000)">
            <g id="Group-2" transform="translate(55.000000, 36.000000)">
                <g id="ecology" fill-rule="nonzero">
                    <path d="M83.7577647,13.6660078 C82.9731721,13.0154004 81.9271938,12.8200664 80.9461264,13.0800059 L77.6768453,13.8613418 C65.3191852,16.9196953 52.3076253,11.9088691 45.2458563,1.36625391 C44.5923921,0.455056641 43.5459782,0 42.5,0 C41.4540218,0 40.4076079,0.455056641 39.7541437,1.3664707 C32.6923747,11.9088691 19.6810326,16.9199121 7.32315467,13.8615586 L4.05387363,13.0802227 C3.07280615,12.8200664 2.02704573,13.0156172 1.24223531,13.6662246 C0.457642711,14.2522266 0,15.2280293 0,16.2042656 L0,59.6104688 C0,78.2224805 10.3963965,95.3813027 27.1348801,103.711289 L41.0617255,110.674588 C41.5189325,110.869705 41.9767931,111 42.5,111 C43.0232069,111 43.4810675,110.869705 43.9382745,110.674588 L57.8651199,103.711289 C74.6036035,95.3810859 85,78.2224805 85,59.6104688 L85,16.2042656 C85,15.2278125 84.5423573,14.2520098 83.7577647,13.6660078 Z" id="Path" fill="#EDE9E8"></path>
                    <path d="M85,16.2042656 L85,59.6104687 C85,78.2224805 74.481293,95.3813027 57.545886,103.711289 L43.4551954,110.674588 C42.9926094,110.869705 42.5293623,111 42,111 L42,0 C43.0582839,0 44.1170085,0.455056641 44.7781605,1.3664707 C51.9230091,11.9088691 65.0874258,16.9199121 77.5906906,13.8615586 L80.8984337,13.0802227 C81.8910432,12.8200664 82.9491067,13.0156172 83.7431502,13.6662246 C84.5369733,14.2520098 85,15.2278125 85,16.2042656 Z" id="Path" fill="#D2C5C2"></path>
                    <path d="M30.5566229,97.7589756 C23.4519781,94.2119594 17.5028029,88.7385989 13.3414548,81.9245481 C9.19275393,75.1320511 7,67.3123737 7,59.3111218 L7,19.8983542 C9.64783324,20.4938053 12.3575939,20.7949055 15.0677907,20.7949055 C25.9077055,20.79447 36.0583507,16.0811533 42.999891,8 C49.9418673,16.0820242 60.0929487,20.7953409 70.9326455,20.7949055 C73.6428422,20.7949055 76.353039,20.4933699 79,19.8983542 L79,59.3111218 C79,67.3123737 76.8072461,75.1320511 72.6587632,81.9245481 C68.4974151,88.7383812 62.54824,94.2119594 55.4542798,97.7535328 L42.999891,104 L30.5566229,97.7589756 Z" id="Path" fill="#FFBA49"></path>
                    <path d="M54.4542085,97.7533434 C61.5481901,94.2117861 67.4971653,88.7384504 71.658744,81.9244305 C75.8074575,75.1317466 78,67.3123224 78,59.3111068 L78,19.8983002 C75.353031,20.4933132 72.643044,20.7946297 69.932621,20.7948474 C59.0928914,20.7950651 48.9419974,16.0817698 42,8 L42,104 L54.4542085,97.7533434 Z" id="Path" fill="#F2A424"></path>
                    <path d="M43.9713785,20.6543789 C43.3800744,20.2616644 42.6569802,20 42,20 C41.3428008,20 40.6197066,20.2616644 40.0286215,20.6543789 C39.1743939,21.309194 19,36.4942307 19,56 C19,75.5051152 39.1743939,90.690806 40.0286215,91.345185 C40.6199256,91.8033156 41.3430198,92 42,92 C42.6571992,92 43.3802934,91.8033156 43.9713785,91.345185 C44.8256061,90.690806 65,75.5053332 65,56 C65,36.4942307 44.8260439,21.309194 43.9713785,20.6543789 Z" id="Path" fill="#20A39E"></path>
                    <g id="Group" transform="translate(32.000000, 20.000000)" fill="#118681">
                        <path d="M32.7963553,35.83441 C32.7963553,55.1617729 12.7892368,70.2090748 11.9420921,70.8574903 C11.3556908,71.311446 10.6385921,71.506338 9.98705921,71.506338 L9.98705921,0.162698061 C10.6385921,0.162698061 11.3559079,0.421977839 11.9420921,0.811113573 C12.7892368,1.45974515 32.7963553,16.5063989 32.7963553,35.83441 Z" id="Path"></path>
                        <path d="M13.245375,29.3487424 L13.245375,74.7492798 C13.245375,76.5651025 11.8118289,77.9922216 9.98684211,77.9922216 C8.16185526,77.9922216 6.72830921,76.5651025 6.72830921,74.7492798 L6.72830921,29.3487424 C6.72830921,27.5324875 8.16185526,26.1058006 9.98684211,26.1058006 C11.8118289,26.1058006 13.245375,27.5324875 13.245375,29.3487424 Z" id="Path"></path>
                        <path d="M18.7845987,25.1326371 L12.2675329,31.6185208 C11.6811316,32.2673684 10.8339868,32.5916842 9.98684211,32.5916842 C9.13969737,32.5916842 8.29233553,32.2673684 7.70615132,31.6185208 L1.18908553,25.1326371 C-0.114414474,23.90041 -0.114414474,21.8248753 1.18908553,20.5926482 C2.42723684,19.2956011 4.51231579,19.2956011 5.75068421,20.5926482 L9.98684211,24.7435014 L14.223,20.5926482 C15.4611513,19.2956011 17.5462303,19.2956011 18.7845987,20.5926482 C20.0878816,21.8248753 20.0878816,23.90041 18.7845987,25.1326371 Z" id="Path"></path>
                        <path d="M18.7845987,44.590072 L12.2675329,51.0759557 C11.6811316,51.7248033 10.8339868,52.0491191 9.98684211,52.0491191 C9.13969737,52.0491191 8.29233553,51.7248033 7.70615132,51.0759557 L1.18908553,44.590072 C-0.114414474,43.3578449 -0.114414474,41.2823102 1.18908553,40.0500831 C2.42723684,38.753036 4.51231579,38.753036 5.75068421,40.0500831 L9.98684211,44.2009363 L14.223,40.0500831 C15.4611513,38.753036 17.5462303,38.753036 18.7845987,40.0500831 C20.0878816,41.2823102 20.0878816,43.3578449 18.7845987,44.590072 Z" id="Path"></path>
                    </g>
                    <g id="Group" transform="translate(42.000000, 39.000000)" fill="#20A39E">
                        <path d="M8.80934783,20.7610332 C10.1145652,22.0026458 10.1145652,24.0939889 8.80934783,25.3356015 L2.28369565,31.8708856 C1.69652174,32.5246753 0.84826087,32.8514613 0,32.8514613 L0,24.9437196 L4.24173913,20.7612509 C5.48173913,19.454107 7.56934783,19.454107 8.80934783,20.7610332 Z" id="Path"></path>
                        <path d="M2.28369565,12.2652509 C1.69652174,12.9190406 0.84826087,13.2458266 0,13.2458266 L0,5.33808487 L4.24173913,1.15561624 C5.48152174,-0.151309963 7.56934783,-0.151309963 8.80934783,1.15561624 C10.1145652,2.39722878 10.1145652,4.48857196 8.80934783,5.7301845 L2.28369565,12.2652509 Z" id="Path"></path>
                        <path d="M3.26282609,9.9781845 L3.26282609,55.7245203 C3.26282609,57.5541734 1.8273913,58.9921624 0,58.9921624 L0,6.71054244 C1.8273913,6.71054244 3.26282609,8.14809594 3.26282609,9.9781845 Z" id="Path"></path>
                    </g>
                </g>
                <text id="Ecosystem" font-family="Roboto-Bold, Roboto" font-size="50" font-weight="bold" letter-spacing="-2.08333333" fill="#212D40">
                    <tspan x="106.01123" y="72">Ecosystem</tspan>
                </text>
            </g>
        </g>
    </g>
</svg>